HIERARCHY
ROOT Hips
{
	OFFSET	0.00	0.00	0.00
	CHANNELS 6 Xposition Yposition Zposition Zrotation Xrotation Yrotation
	JOINT LeftUpLeg
	{
		OFFSET	 0.126116	-0.014019	-0.065224
		CHANNELS 3 Zrotation Xrotation Yrotation
		JOINT LeftLeg
		{
			OFFSET	 0.000000	 0.000000	 0.569914
			CHANNELS 3 Zrotation Xrotation Yrotation
			JOINT LeftFoot
			{
				OFFSET	 0.000000	 0.000000	 0.544423
				CHANNELS 3 Zrotation Xrotation Yrotation
				JOINT LeftToeBase
				{
					OFFSET	 0.000000	 0.000000	 0.207117
					CHANNELS 3 Zrotation Xrotation Yrotation
					End Site
					{
						OFFSET	 0.000000	 0.000000	 0.207117
					}
				}
			}
		}
	}
	JOINT RightUpLeg
	{
		OFFSET	-0.124023	-0.008373	-0.065224
		CHANNELS 3 Zrotation Xrotation Yrotation
		JOINT RightLeg
		{
			OFFSET	 0.000000	 0.000000	 0.570047
			CHANNELS 3 Zrotation Xrotation Yrotation
			JOINT RightFoot
			{
				OFFSET	 0.000000	 0.000000	 0.544354
				CHANNELS 3 Zrotation Xrotation Yrotation
				JOINT RightToeBase
				{
					OFFSET	 0.000000	 0.000000	 0.207540
					CHANNELS 3 Zrotation Xrotation Yrotation
					End Site
					{
						OFFSET	 0.000000	 0.000000	 0.207540
					}
				}
			}
		}
	}
	JOINT Spine
	{
		OFFSET	 0.000184	-0.007763	 0.117403
		CHANNELS 3 Zrotation Xrotation Yrotation
		JOINT Spine1
		{
			OFFSET	 0.000000	 0.000000	 0.137269
			CHANNELS 3 Zrotation Xrotation Yrotation
			JOINT Spine2
			{
				OFFSET	 0.000000	 0.000000	 0.156879
				CHANNELS 3 Zrotation Xrotation Yrotation
				JOINT LeftShoulder
				{
					OFFSET	 0.080501	-0.002496	 0.160144
					CHANNELS 3 Zrotation Xrotation Yrotation
					JOINT LeftArm
					{
						OFFSET	 0.000000	 0.000000	 0.164363
						CHANNELS 3 Zrotation Xrotation Yrotation
						JOINT LeftForeArm
						{
							OFFSET	 0.000000	 0.000000	 0.364576
							CHANNELS 3 Zrotation Xrotation Yrotation
							JOINT LeftHand
							{
								OFFSET	 0.000000	 0.000000	 0.360812
								CHANNELS 3 Zrotation Xrotation Yrotation
								JOINT LeftHandIndex1
								{
									OFFSET	 0.000000	 0.000000	 0.086006
									CHANNELS 3 Zrotation Xrotation Yrotation
									JOINT LeftHandIndex2
									{
										OFFSET	 0.000000	 0.000000	 0.047236
										CHANNELS 3 Zrotation Xrotation Yrotation
										JOINT LeftHandIndex3
										{
											OFFSET	-0.004284	-0.000551	 0.038166
											CHANNELS 3 Zrotation Xrotation Yrotation
											End Site
											{
												OFFSET	-0.004284	-0.000551	 0.038166
											}
										}
									}
								}
							}
						}
					}
				}
				JOINT Neck
				{
					OFFSET	 0.000000	 0.000000	 0.176489
					CHANNELS 3 Zrotation Xrotation Yrotation
					JOINT Head
					{
						OFFSET	 0.000000	-0.001747	 0.077940
						CHANNELS 3 Zrotation Xrotation Yrotation
						End Site
						{
							OFFSET	 0.000000	-0.001747	 0.077940
						}
					}
				}
				JOINT RightShoulder
				{
					OFFSET	-0.080363	 0.000306	 0.159706
					CHANNELS 3 Zrotation Xrotation Yrotation
					JOINT RightArm
					{
						OFFSET	 0.000000	 0.000000	 0.164196
						CHANNELS 3 Zrotation Xrotation Yrotation
						JOINT RightForeArm
						{
							OFFSET	 0.000000	 0.000000	 0.365611
							CHANNELS 3 Zrotation Xrotation Yrotation
							JOINT RightHand
							{
								OFFSET	 0.000000	 0.000000	 0.360648
								CHANNELS 3 Zrotation Xrotation Yrotation
								JOINT RightHandIndex1
								{
									OFFSET	 0.000000	 0.000000	 0.069977
									CHANNELS 3 Zrotation Xrotation Yrotation
									JOINT RightHandIndex2
									{
										OFFSET	 0.000000	 0.000000	 0.052305
										CHANNELS 3 Zrotation Xrotation Yrotation
										JOINT RightHandIndex3
										{
											OFFSET	 0.009002	-0.000782	 0.042196
											CHANNELS 3 Zrotation Xrotation Yrotation
											End Site
											{
												OFFSET	 0.009002	-0.000782	 0.042196
											}
										}
									}
								}
							}
						}
					}
				}
			}
		}
	}
}
MOTION
Frames:    5
Frame Time: 0.03333334
 0.000297	 0.019626	 1.272548	-0.002640	 0.004319	 0.174535	-17.771350	-2.067781	-179.337900	 1.460975	-12.903850	-0.755168	-2.458045	 71.767550	-4.125372	-2.385833	 28.452760	 0.000004	 17.618460	-2.183096	 179.138400	-1.453337	-12.480570	 0.716170	 2.407434	 71.363530	 3.980487	 2.384658	 28.388730	 0.000004	-4.244765	 2.602870	 0.283120	-2.145181	 4.080495	-0.775480	 6.492286	-5.034244	 1.432653	-91.776150	 78.527450	 180.000000	 71.819610	 45.471820	-54.509730	-7.811821	 4.000420	-10.048500	-30.872090	-18.517130	-4.599901	-2.635965	 4.993658	 6.788941	-5.165319	 0.784187	 3.516649	-5.225038	 0.466231	 0.424329	-0.000002	-3.783157	-0.089647	 6.298705	 4.386187	-0.241467	 89.782130	 78.203890	 180.000000	-65.002520	 42.257750	 56.162580	 7.340626	 5.089158	 11.797340	 31.712910	-19.295840	 9.384361	 6.112037	 4.509576	-0.364401	 4.968462	 1.518543	-9.347576	 5.168945	 0.703820	 2.021906
 0.000295	 0.019566	 1.273520	-0.002150	 0.005145	 0.173734	-17.768090	-2.060410	-179.338600	 1.461207	-12.886320	-0.754107	-2.487536	 71.597340	-4.094066	-2.385833	 28.452760	 0.000004	 17.615320	-2.176757	 179.140100	-1.453521	-12.466280	 0.715325	 2.436151	 71.194980	 3.951031	 2.384658	 28.388730	 0.000004	-4.167736	 2.514112	 0.267619	-2.111145	 4.387803	-0.740423	 6.387009	-5.436854	 1.435199	-91.776080	 78.527470	 179.999900	 71.930400	 45.545420	-54.431900	-7.804078	 4.010131	-10.073340	-30.984050	-19.438790	-4.637142	-2.635965	 4.993658	 6.788941	-5.165319	 0.784187	 3.516649	-5.225038	 0.466231	 0.424329	-0.000002	-3.783157	-0.089647	 6.180227	 4.212834	-0.227545	 89.782220	 78.203890	 179.999900	-64.999890	 42.045380	 56.407050	 7.000767	 4.966992	 11.709970	 31.855780	-20.431420	 9.323118	 6.112037	 4.509576	-0.364401	 4.968462	 1.518543	-9.347576	 5.168945	 0.703820	 2.021906
 0.000286	 0.019482	 1.274900	-0.001425	 0.006284	 0.169536	-17.763080	-2.047363	-179.337200	 1.461633	-12.854400	-0.752179	-2.526863	 71.354920	-4.051755	-2.385833	 28.452760	 0.000004	 17.611080	-2.169548	 179.144900	-1.453705	-12.451500	 0.714448	 2.475859	 70.961210	 3.910473	 2.384658	 28.388730	 0.000004	-3.999898	 2.392516	 0.244888	-2.032778	 4.808806	-0.681992	 6.146332	-5.994594	 1.414990	-91.776100	 78.527450	 179.999900	 72.079410	 45.656860	-54.334980	-7.792699	 4.011163	-10.075930	-31.173340	-20.971340	-4.705042	-2.635965	 4.993658	 6.788941	-5.165319	 0.784187	 3.516649	-5.225038	 0.466231	 0.424329	-0.000002	-3.783157	-0.089647	 5.925191	 3.985411	-0.206353	 89.782170	 78.203900	 179.999900	-64.985020	 41.538560	 57.072670	 6.419400	 4.647322	 11.289650	 32.225270	-22.414420	 9.187160	 6.112037	 4.509576	-0.364401	 4.968462	 1.518543	-9.347576	 5.168945	 0.703820	 2.021906
 0.000264	 0.019389	 1.276471	-0.000594	 0.007452	 0.160223	-17.745150	-2.029207	-179.332800	 1.462257	-12.808860	-0.749421	-2.552774	 71.078080	-4.010522	-2.385833	 28.452760	 0.000004	 17.617370	-2.164366	 179.153200	-1.453805	-12.443690	 0.713985	 2.534061	 70.703170	 3.862117	 2.384658	 28.388730	 0.000004	-3.730225	 2.262353	 0.219391	-1.902324	 5.259767	-0.605717	 5.747973	-6.600285	 1.356936	-91.776270	 78.527470	-179.999900	 72.231530	 45.790390	-54.241360	-7.779720	 3.993463	-10.030920	-31.432270	-23.010130	-4.807589	-2.635965	 4.993658	 6.788941	-5.165319	 0.784187	 3.516649	-5.225038	 0.466231	 0.424329	-0.000002	-3.783157	-0.089647	 5.518329	 3.754502	-0.181021	 89.782140	 78.203870	 179.999900	-64.694140	 40.849530	 58.073910	 5.570142	 4.156549	 10.562940	 32.719630	-25.025160	 9.043759	 6.112037	 4.509576	-0.364401	 4.968462	 1.518543	-9.347576	 5.168945	 0.703820	 2.021906
 0.000230	 0.019295	 1.278113	 0.000190	 0.008416	 0.145369	-17.739990	-2.007100	-179.323000	 1.463011	-12.752280	-0.745998	-2.595751	 70.787050	-3.964961	-2.385833	 28.452760	 0.000004	 17.611110	-2.162978	 179.166800	-1.453761	-12.447480	 0.714210	 2.576692	 70.442540	 3.817046	 2.384658	 28.388730	 0.000004	-3.364461	 2.137753	 0.194503	-1.720866	 5.692369	-0.517664	 5.196809	-7.189460	 1.255435	-91.776170	 78.527490	 180.000000	 72.361470	 45.931680	-54.153590	-7.766186	 3.954681	-9.932178	-31.753780	-25.441770	-4.949462	-2.635965	 4.993658	 6.788941	-5.165319	 0.784187	 3.516649	-5.225038	 0.466231	 0.424329	-0.000002	-3.783157	-0.089647	 4.969231	 3.545427	-0.153905	 89.782140	 78.203870	 180.000000	-63.822000	 39.889200	 58.892750	 4.359670	 3.827696	 10.376500	 32.964240	-28.142120	 8.780860	 6.112037	 4.509576	-0.364401	 4.968462	 1.518543	-9.347576	 5.168945	 0.703820	 2.021906
